HIERARCHY
ROOT joint_Root
{
	OFFSET 0.0 0.0 0.0
	CHANNELS 6 Xposition Yposition Zposition Zrotation Xrotation Yrotation 
	JOINT Hips
	{
		OFFSET -0.726466 93.3139 -2.00062
		CHANNELS 6 Xposition Yposition Zposition Zrotation Xrotation Yrotation 
		JOINT Spine
		{
			OFFSET 15.7357 0.0 0.0
			CHANNELS 6 Xposition Yposition Zposition Zrotation Xrotation Yrotation 
			JOINT Chest
			{
				OFFSET 8.98455 -0.406207 0.0
				CHANNELS 6 Xposition Yposition Zposition Zrotation Xrotation Yrotation 
				JOINT Neck
				{
					OFFSET 16.3773 0.0 0.0
					CHANNELS 6 Xposition Yposition Zposition Zrotation Xrotation Yrotation 
					JOINT Head
					{
						OFFSET 6.45672 0.0 0.0
						CHANNELS 6 Xposition Yposition Zposition Zrotation Xrotation Yrotation 
						End Site
						{
							OFFSET 0.0 0.0 0.0
						}
					}
				}
				JOINT Shoulder_L
				{
					OFFSET 12.9942 -0.242716 4.98039
					CHANNELS 6 Xposition Yposition Zposition Zrotation Xrotation Yrotation 
					JOINT UpperArm_L
					{
						OFFSET 5.34809 0.0 0.0
						CHANNELS 6 Xposition Yposition Zposition Zrotation Xrotation Yrotation 
						JOINT LowerArm_L
						{
							OFFSET 24.3286 1.87007e-05 0.0
							CHANNELS 6 Xposition Yposition Zposition Zrotation Xrotation Yrotation 
							JOINT Hand_L
							{
								OFFSET 22.2916 0.0 0.0
								CHANNELS 6 Xposition Yposition Zposition Zrotation Xrotation Yrotation 
								End Site
								{
									OFFSET 0.0 0.0 0.0
								}
							}
						}
					}
				}
				JOINT Shoulder_R
				{
					OFFSET 12.9945 -0.242716 -4.98039
					CHANNELS 6 Xposition Yposition Zposition Zrotation Xrotation Yrotation 
					JOINT UpperArm_R
					{
						OFFSET -5.34813 0.0 0.0
						CHANNELS 6 Xposition Yposition Zposition Zrotation Xrotation Yrotation 
						JOINT LowerArm_R
						{
							OFFSET -24.3289 0.000322201 0.0
							CHANNELS 6 Xposition Yposition Zposition Zrotation Xrotation Yrotation 
							JOINT Hand_R
							{
								OFFSET -22.2915 -0.000108084 0.0
								CHANNELS 6 Xposition Yposition Zposition Zrotation Xrotation Yrotation 
								End Site
								{
									OFFSET 0.0 0.0 0.0
								}
							}
						}
					}
				}
			}
		}
		JOINT UpperLeg_L
		{
			OFFSET -2.19248 -6.46944 0.0
			CHANNELS 6 Xposition Yposition Zposition Zrotation Xrotation Yrotation 
			JOINT LowerLeg_L
			{
				OFFSET 39.0811 0.0 -1.23785e-05
				CHANNELS 6 Xposition Yposition Zposition Zrotation Xrotation Yrotation 
				JOINT Foot_L
				{
					OFFSET 40.9854 0.0 -1.26872e-05
					CHANNELS 6 Xposition Yposition Zposition Zrotation Xrotation Yrotation 
					JOINT Toes_L
					{
						OFFSET 11.7543 0.0 0.0
						CHANNELS 6 Xposition Yposition Zposition Zrotation Xrotation Yrotation 
						End Site
						{
							OFFSET 0.0 0.0 0.0
						}
					}
				}
			}
		}
		JOINT UpperLeg_R
		{
			OFFSET -2.19251 6.46944 0.0
			CHANNELS 6 Xposition Yposition Zposition Zrotation Xrotation Yrotation 
			JOINT LowerLeg_R
			{
				OFFSET -39.0811 -0.00228153 -0.0401928
				CHANNELS 6 Xposition Yposition Zposition Zrotation Xrotation Yrotation 
				JOINT Foot_R
				{
					OFFSET -40.9854 0.0 0.0
					CHANNELS 6 Xposition Yposition Zposition Zrotation Xrotation Yrotation 
					JOINT Toes_R
					{
						OFFSET -11.7543 0.0 0.0
						CHANNELS 6 Xposition Yposition Zposition Zrotation Xrotation Yrotation 
						End Site
						{
							OFFSET 0.0 0.0 0.0
						}
					}
				}
			}
		}
	}
}
MOTION
Frames:	4
Frame Time:	0.0333333
0.000000 0.000000 0.000000 0.000000 0.000000 -0.000000 -1.284100 92.308000 -2.317900 87.592900 -1.072010 1.605410 15.735700 0.000005 -0.000001 85.527200 85.720900 -84.515000 8.984550 -0.406207 -0.000000 0.773409 -0.728932 2.027770 16.377300 -0.000001 -0.000001 0.399194 -3.260070 1.089560 6.456720 -0.000001 -0.000000 -1.160840 -2.172080 -3.663130 12.994200 -0.242716 4.980390 -90.106800 0.337248 -72.427500 5.348090 -0.000007 -0.000001 -67.243600 38.314800 -13.939900 24.328600 0.000019 0.000005 3.031890 6.831860 -24.001000 22.291600 -0.000001 0.000005 7.474680 5.545840 -8.511400 12.994500 -0.242716 -4.980390 88.322800 4.538310 -69.692500 -5.348130 -0.000001 -0.000004 -62.748800 42.318400 -12.933900 -24.328900 0.000322 -0.000009 2.557170 4.627710 -28.977300 -22.291500 -0.000108 -0.000004 12.758200 5.605860 -11.699700 -2.192480 -6.469440 -0.000000 -169.482000 -14.718000 -3.950490 39.081100 -0.000007 -0.000012 -0.154419 0.423854 20.018000 40.985400 -0.000006 -0.000013 -5.942960 3.174660 -62.813100 11.754300 -0.000000 0.000003 -0.000029 -0.000356 -16.591500 -2.192510 6.469440 -0.000001 175.948000 20.029700 177.557000 -39.081100 -0.002282 -0.040193 -0.015710 0.057884 18.203500 -40.985400 0.000008 0.000006 -1.909050 2.454490 -62.548700 -11.754300 -0.000006 -0.000006 -0.006409 -0.074508 -19.605800
0.000000 0.000000 0.000000 0.000000 0.000000 -0.000000 -1.274170 92.315500 -2.337820 87.588000 -1.110310 1.589970 15.735700 0.000005 -0.000001 85.542600 85.679600 -84.500300 8.984550 -0.406207 -0.000000 0.856249 -0.734118 2.088500 16.377300 -0.000001 -0.000001 0.342797 -3.284240 1.248190 6.456720 -0.000001 -0.000000 -1.222860 -2.170510 -3.495030 12.994200 -0.242716 4.980390 -90.093600 0.294094 -72.340300 5.348090 -0.000007 -0.000001 -66.887500 37.646600 -14.248700 24.328600 0.000019 0.000005 3.222930 7.091170 -24.519400 22.291600 -0.000001 0.000005 6.955340 5.544040 -8.427900 12.994500 -0.242716 -4.980390 88.384300 4.333830 -69.531700 -5.348130 -0.000001 -0.000004 -60.733200 44.947200 -12.468900 -24.328900 0.000322 -0.000009 2.980090 4.402210 -34.155900 -22.291500 -0.000108 -0.000004 11.236600 5.615170 -12.295900 -2.192480 -6.469440 -0.000000 -169.470000 -14.867300 -3.936290 39.081100 -0.000007 -0.000012 -0.154362 0.424816 19.969400 40.985400 -0.000006 -0.000013 -5.920980 3.282520 -62.774400 11.754300 -0.000000 0.000003 -0.000028 -0.000337 -16.590700 -2.192510 6.469440 -0.000001 175.953000 19.999700 177.544000 -39.081100 -0.002282 -0.040193 -0.015646 0.057909 18.138700 -40.985400 0.000008 0.000006 -1.925320 2.493070 -62.488300 -11.754300 -0.000006 -0.000006 -0.006230 -0.072912 -19.540700
0.000000 0.000000 0.000000 0.000000 0.000000 -0.000000 -1.259700 92.311200 -2.383150 87.614000 -1.077940 1.584390 15.735700 0.000005 -0.000001 85.277800 85.631500 -84.209100 8.984550 -0.406207 -0.000000 0.949598 -0.782541 2.142130 16.377300 -0.000001 -0.000001 0.292792 -3.348360 1.336190 6.456720 -0.000001 -0.000000 -1.356010 -2.203030 -3.183430 12.994200 -0.242716 4.980390 -90.105300 0.329928 -72.295200 5.348090 -0.000007 -0.000001 -65.789900 36.819900 -14.889400 24.328600 0.000019 0.000005 3.262270 6.856870 -25.520400 22.291600 -0.000001 0.000005 6.566210 5.547220 -8.575680 12.994500 -0.242716 -4.980390 88.510300 3.959330 -69.361700 -5.348130 -0.000001 -0.000004 -58.750300 47.201900 -11.791900 -24.328900 0.000322 -0.000009 3.763490 4.519090 -39.865100 -22.291500 -0.000108 -0.000004 9.527250 5.627250 -13.135300 -2.192480 -6.469440 -0.000000 -169.531000 -14.845800 -4.031800 39.081100 -0.000007 -0.000012 -0.154643 0.423849 20.044800 40.985400 -0.000006 -0.000013 -5.895900 3.258130 -62.773300 11.754300 -0.000000 0.000003 -0.000030 -0.000361 -16.591600 -2.192510 6.469440 -0.000001 175.916000 20.046400 177.487000 -39.081100 -0.002282 -0.040193 -0.017668 0.063882 18.191300 -40.985400 0.000008 0.000006 -2.022860 2.491680 -62.476000 -11.754300 -0.000006 -0.000006 -0.006308 -0.073605 -19.568900
0.000000 0.000000 0.000000 0.000000 0.000000 -0.000000 -1.239990 92.324700 -2.405160 87.689400 -0.955590 1.628770 15.735700 0.000005 -0.000001 84.892300 85.565100 -83.801000 8.984550 -0.406207 -0.000000 1.077780 -0.853005 2.188750 16.377300 -0.000001 -0.000001 0.173136 -3.438180 1.495620 6.456720 -0.000001 -0.000000 -1.441520 -2.239930 -2.968230 12.994200 -0.242716 4.980390 -90.147200 0.459414 -72.231000 5.348090 -0.000007 -0.000001 -63.748800 35.644900 -16.115700 24.328600 0.000019 0.000005 3.561590 6.991540 -27.081900 22.291600 -0.000001 0.000005 6.607210 5.555800 -8.982640 12.994500 -0.242716 -4.980390 88.700300 3.419580 -69.174900 -5.348130 -0.000001 -0.000004 -56.625600 49.355000 -10.963000 -24.328900 0.000322 -0.000009 4.515010 4.351760 -46.147900 -22.291500 -0.000108 -0.000004 7.430150 5.637710 -13.939700 -2.192480 -6.469440 -0.000000 -169.622000 -14.778100 -3.956070 39.081100 -0.000007 -0.000012 -0.150958 0.416940 19.903500 40.985400 -0.000006 -0.000013 -5.871280 3.296370 -62.684700 11.754300 -0.000000 0.000003 -0.000025 -0.000312 -16.589700 -2.192510 6.469440 -0.000001 175.822000 20.108600 177.543000 -39.081100 -0.002282 -0.040193 -0.015635 0.057751 18.174800 -40.985400 0.000008 0.000006 -1.921770 2.457350 -62.472700 -11.754300 -0.000006 -0.000006 -0.006310 -0.073622 -19.569600
